<svg class="diagram-root" style="background: #f5f6f6" xmlns="http://www.w3.org/2000/svg" xmlns:xlink="http://www.w3.org/1999/xlink"><style>.diagram-root { font-family: "Helvetica Neue", sans-serif; font-size: 12px; } .t { overflow: visible; } .t-bg { y: 40; fill: #fff;   } .th { fill: #005aa0;   } .tht { fill: #fff; font-size: 14px;  } .tf { fill: #323c46; overflow: visible; } .tf.pk { fill: #005aa0; font-weight: bold; } .tf.fk { font-weight: bold; } .ty { fill: #adb1b5; font-weight: normal; text-anchor: end; } .r { fill: transparent; stroke: #c3c3c3; stroke-width: 1; } .l { stroke: 1; } .i { fill: #c2c7ce; stroke: #c2c7ce; } .i.ix { fill: #afb3b6; stroke: #000; } .fa { fill: transparent; overflow: visible; } .fa .bg.hover { fill: #f7f7f7; } .c { cy: 12; r: 4; stroke: #d2d2dc; fill: #d2d2dc; } .hr { fill: transparent; stroke: #323c46; stroke-opacity: 0.035; stroke-width: 13; } .dc { stroke: #fa5a3c; fill: #fa5a3c; } .x { stroke: white; stroke-width: 1; } .hl .th { fill: #1b9bff; } .hl .tht {  } .fhl .bg { fill: #e7f4ff; } .fhls .bg {  } .r.hl { stroke: #1b9bff; } .dim { opacity: 0.25; }</style><g class="drawing-wrapper" transform="translate(-68.44444444444417, -174.44444444444468) scale(1,1)"><g class="rs"><path d="M 384.95 261.44 m -1, 0 a 1,1 0 1,0 2,0 a 1,1 0 1,0 -2,0 M 384.95 261.44 m -0.5, 0 a 0.5,0.5 0 1,0 1,0 a 0.5,0.5 0 1,0 -1,0  M384.95 261.44 L384.95 261.44 396.95 261.44 M 384.95 267.44 m -1, 0 a 1,1 0 1,0 2,0 a 1,1 0 1,0 -2,0 M 384.95 267.44 m -0.5, 0 a 0.5,0.5 0 1,0 1,0 a 0.5,0.5 0 1,0 -1,0  M384.95 267.44 L384.95 267.44 391.95 261.44 384.95 255.44 M 384.95 255.44 m -1, 0 a 1,1 0 1,0 2,0 a 1,1 0 1,0 -2,0 M 384.95 255.44 m -0.5, 0 a 0.5,0.5 0 1,0 1,0 a 0.5,0.5 0 1,0 -1,0  M396.95 261.44 Q 429.77 261.44, 462.59 328.06 T 528.22 394.67 M 540.22 394.67 m -1, 0 a 1,1 0 1,0 2,0 a 1,1 0 1,0 -2,0 M 540.22 394.67 m -0.5, 0 a 0.5,0.5 0 1,0 1,0 a 0.5,0.5 0 1,0 -1,0  M540.22 394.67 L540.22 394.67 528.22 394.67 M534.22 400.67 L534.22 400.67 534.22 388.67" id="h1139284389" class="r"></path><path d="M 384.95 286.44 m -1, 0 a 1,1 0 1,0 2,0 a 1,1 0 1,0 -2,0 M 384.95 286.44 m -0.5, 0 a 0.5,0.5 0 1,0 1,0 a 0.5,0.5 0 1,0 -1,0  M384.95 286.44 L384.95 286.44 396.95 286.44 M 384.95 292.44 m -1, 0 a 1,1 0 1,0 2,0 a 1,1 0 1,0 -2,0 M 384.95 292.44 m -0.5, 0 a 0.5,0.5 0 1,0 1,0 a 0.5,0.5 0 1,0 -1,0  M384.95 292.44 L384.95 292.44 391.95 286.44 384.95 280.44 M 384.95 280.44 m -1, 0 a 1,1 0 1,0 2,0 a 1,1 0 1,0 -2,0 M 384.95 280.44 m -0.5, 0 a 0.5,0.5 0 1,0 1,0 a 0.5,0.5 0 1,0 -1,0  M396.95 286.44 C 446.95 286.44, 523.354 440, 269.61 440 M 257.61 440 m -1, 0 a 1,1 0 1,0 2,0 a 1,1 0 1,0 -2,0 M 257.61 440 m -0.5, 0 a 0.5,0.5 0 1,0 1,0 a 0.5,0.5 0 1,0 -1,0  M257.61 440 L257.61 440 269.61 440 M263.61 446 L263.61 446 263.61 434" id="h1607168654" class="r"></path><path d="M 388.39 594.11 m -1, 0 a 1,1 0 1,0 2,0 a 1,1 0 1,0 -2,0 M 388.39 594.11 m -0.5, 0 a 0.5,0.5 0 1,0 1,0 a 0.5,0.5 0 1,0 -1,0  M388.39 594.11 L388.39 594.11 400.39 594.11 M 388.39 600.11 m -1, 0 a 1,1 0 1,0 2,0 a 1,1 0 1,0 -2,0 M 388.39 600.11 m -0.5, 0 a 0.5,0.5 0 1,0 1,0 a 0.5,0.5 0 1,0 -1,0  M388.39 600.11 L388.39 600.11 395.39 594.11 388.39 588.11 M 388.39 588.11 m -1, 0 a 1,1 0 1,0 2,0 a 1,1 0 1,0 -2,0 M 388.39 588.11 m -0.5, 0 a 0.5,0.5 0 1,0 1,0 a 0.5,0.5 0 1,0 -1,0  M400.39 594.11 C 450.39 594.11, 528.858 440, 269.61 440 M 257.61 440 m -1, 0 a 1,1 0 1,0 2,0 a 1,1 0 1,0 -2,0 M 257.61 440 m -0.5, 0 a 0.5,0.5 0 1,0 1,0 a 0.5,0.5 0 1,0 -1,0  M257.61 440 L257.61 440 269.61 440 M263.61 446 L263.61 446 263.61 434" id="h1397587031" class="r"></path><path d="M 388.39 619.11 m -1, 0 a 1,1 0 1,0 2,0 a 1,1 0 1,0 -2,0 M 388.39 619.11 m -0.5, 0 a 0.5,0.5 0 1,0 1,0 a 0.5,0.5 0 1,0 -1,0  M388.39 619.11 L388.39 619.11 400.39 619.11 M 388.39 625.11 m -1, 0 a 1,1 0 1,0 2,0 a 1,1 0 1,0 -2,0 M 388.39 625.11 m -0.5, 0 a 0.5,0.5 0 1,0 1,0 a 0.5,0.5 0 1,0 -1,0  M388.39 625.11 L388.39 625.11 395.39 619.11 388.39 613.11 M 388.39 613.11 m -1, 0 a 1,1 0 1,0 2,0 a 1,1 0 1,0 -2,0 M 388.39 613.11 m -0.5, 0 a 0.5,0.5 0 1,0 1,0 a 0.5,0.5 0 1,0 -1,0  M400.39 619.11 Q 432.35 619.11, 464.31 506.89 T 528.22 394.67 M 540.22 394.67 m -1, 0 a 1,1 0 1,0 2,0 a 1,1 0 1,0 -2,0 M 540.22 394.67 m -0.5, 0 a 0.5,0.5 0 1,0 1,0 a 0.5,0.5 0 1,0 -1,0  M540.22 394.67 L540.22 394.67 528.22 394.67 M534.22 400.67 L534.22 400.67 534.22 388.67" id="h2286254435" class="r"></path><path d="M 708.72 394.67 m -1, 0 a 1,1 0 1,0 2,0 a 1,1 0 1,0 -2,0 M 708.72 394.67 m -0.5, 0 a 0.5,0.5 0 1,0 1,0 a 0.5,0.5 0 1,0 -1,0  M708.72 394.67 L708.72 394.67 720.72 394.67 M 708.72 400.67 m -1, 0 a 1,1 0 1,0 2,0 a 1,1 0 1,0 -2,0 M 708.72 400.67 m -0.5, 0 a 0.5,0.5 0 1,0 1,0 a 0.5,0.5 0 1,0 -1,0  M708.72 400.67 L708.72 400.67 715.72 394.67 708.72 388.67 M 708.72 388.67 m -1, 0 a 1,1 0 1,0 2,0 a 1,1 0 1,0 -2,0 M 708.72 388.67 m -0.5, 0 a 0.5,0.5 0 1,0 1,0 a 0.5,0.5 0 1,0 -1,0  M720.72 394.67 Q 741.04 394.67, 761.36 363.01 T 802 331.34 M 814 331.34 m -1, 0 a 1,1 0 1,0 2,0 a 1,1 0 1,0 -2,0 M 814 331.34 m -0.5, 0 a 0.5,0.5 0 1,0 1,0 a 0.5,0.5 0 1,0 -1,0  M814 331.34 L814 331.34 802 331.34 M808 337.34 L808 337.34 808 325.34" id="h2543177687" class="r"></path><path d="M 708.72 419.67 m -1, 0 a 1,1 0 1,0 2,0 a 1,1 0 1,0 -2,0 M 708.72 419.67 m -0.5, 0 a 0.5,0.5 0 1,0 1,0 a 0.5,0.5 0 1,0 -1,0  M708.72 419.67 L708.72 419.67 720.72 419.67 M 708.72 425.67 m -1, 0 a 1,1 0 1,0 2,0 a 1,1 0 1,0 -2,0 M 708.72 425.67 m -0.5, 0 a 0.5,0.5 0 1,0 1,0 a 0.5,0.5 0 1,0 -1,0  M708.72 425.67 L708.72 425.67 715.72 419.67 708.72 413.67 M 708.72 413.67 m -1, 0 a 1,1 0 1,0 2,0 a 1,1 0 1,0 -2,0 M 708.72 413.67 m -0.5, 0 a 0.5,0.5 0 1,0 1,0 a 0.5,0.5 0 1,0 -1,0  M720.72 419.67 Q 743.88 419.67, 767.03 479.78 T 813.33 539.89 M 825.33 539.89 m -1, 0 a 1,1 0 1,0 2,0 a 1,1 0 1,0 -2,0 M 825.33 539.89 m -0.5, 0 a 0.5,0.5 0 1,0 1,0 a 0.5,0.5 0 1,0 -1,0  M825.33 539.89 L825.33 539.89 813.33 539.89 M819.33 545.89 L819.33 545.89 819.33 533.89" id="h1537058300" class="r"></path></g><g class="hrs"></g><g class="ts"><svg width="158.48" height="100" x="825.33" y="482.89" id="h311790747" class="t"><rect height="40" width="158.48" class="th"></rect><text x="13" y="25" class="tht">titles</text><rect height="60" width="158.48" class="t-bg"></rect><text x="13" y="61" class="tf pk">title_id<tspan x="145.48" class="ty">VARCHAR</tspan></text><path d="M7,14A2,2 0 0,1 5,12A2,2 0 0,1 7,10A2,2 0 0,1 9,12A2,2 0 0,1 7,14M12.65,10C11.83,7.67 9.61,6 7, 6A6, 6 0 0, 0 1, 12A6, 6 0 0, 0 7, 18C9.61, 18 11.83, 16.33 12.65, 14H17V18H21V14H23V10H12.65Z" class="i pk" transform="translate(67.68898437499999, 48) scale(0.65)"></path><text x="13" y="86" class="tf">title<tspan x="145.48" class="ty">VARCHAR</tspan></text></svg><svg width="167.17" height="100" x="217.78" y="204.44" id="h1090417462" class="t"><rect height="40" width="167.17" class="th"></rect><text x="13" y="25" class="tht">dept_emp</text><rect height="60" width="167.17" class="t-bg"></rect><text x="13" y="61" class="tf pk">emp_no<tspan x="154.17" class="ty">INT</tspan></text><path d="M7,14A2,2 0 0,1 5,12A2,2 0 0,1 7,10A2,2 0 0,1 9,12A2,2 0 0,1 7,14M12.65,10C11.83,7.67 9.61,6 7, 6A6, 6 0 0, 0 1, 12A6, 6 0 0, 0 7, 18C9.61, 18 11.83, 16.33 12.65, 14H17V18H21V14H23V10H12.65Z" class="i pk" transform="translate(114.83992187499999, 48) scale(0.65)"></path><text x="13" y="86" class="tf pk">dept_no<tspan x="154.17" class="ty">VARCHAR</tspan></text><path d="M7,14A2,2 0 0,1 5,12A2,2 0 0,1 7,10A2,2 0 0,1 9,12A2,2 0 0,1 7,14M12.65,10C11.83,7.67 9.61,6 7, 6A6, 6 0 0, 0 1, 12A6, 6 0 0, 0 7, 18C9.61, 18 11.83, 16.33 12.65, 14H17V18H21V14H23V10H12.65Z" class="i pk" transform="translate(76.37898437499999, 73) scale(0.65)"></path></svg><svg width="167.17" height="100" x="221.22" y="537.11" id="h1676682957" class="t"><rect height="40" width="167.17" class="th"></rect><text x="13" y="25" class="tht">dept_manager</text><rect height="60" width="167.17" class="t-bg"></rect><text x="13" y="61" class="tf pk">dept_no<tspan x="154.17" class="ty">VARCHAR</tspan></text><path d="M7,14A2,2 0 0,1 5,12A2,2 0 0,1 7,10A2,2 0 0,1 9,12A2,2 0 0,1 7,14M12.65,10C11.83,7.67 9.61,6 7, 6A6, 6 0 0, 0 1, 12A6, 6 0 0, 0 7, 18C9.61, 18 11.83, 16.33 12.65, 14H17V18H21V14H23V10H12.65Z" class="i pk" transform="translate(76.37898437499999, 48) scale(0.65)"></path><text x="13" y="86" class="tf pk">emp_no<tspan x="154.17" class="ty">INT</tspan></text><path d="M7,14A2,2 0 0,1 5,12A2,2 0 0,1 7,10A2,2 0 0,1 9,12A2,2 0 0,1 7,14M12.65,10C11.83,7.67 9.61,6 7, 6A6, 6 0 0, 0 1, 12A6, 6 0 0, 0 7, 18C9.61, 18 11.83, 16.33 12.65, 14H17V18H21V14H23V10H12.65Z" class="i pk" transform="translate(114.83992187499999, 73) scale(0.65)"></path></svg><svg width="168.5" height="225" x="540.22" y="337.67" id="h1639608377" class="t"><rect height="40" width="168.5" class="th"></rect><text x="13" y="25" class="tht">employees</text><rect height="185" width="168.5" class="t-bg"></rect><text x="13" y="61" class="tf pk">emp_no<tspan x="155.5" class="ty">INT</tspan></text><path d="M7,14A2,2 0 0,1 5,12A2,2 0 0,1 7,10A2,2 0 0,1 9,12A2,2 0 0,1 7,14M12.65,10C11.83,7.67 9.61,6 7, 6A6, 6 0 0, 0 1, 12A6, 6 0 0, 0 7, 18C9.61, 18 11.83, 16.33 12.65, 14H17V18H21V14H23V10H12.65Z" class="i pk" transform="translate(116.169921875, 48) scale(0.65)"></path><text x="13" y="86" class="tf fk">emp_title_id<tspan x="155.5" class="ty">VARCHAR</tspan></text><text x="13" y="111" class="tf">birth_date<tspan x="155.5" class="ty">DATE</tspan></text><text x="13" y="136" class="tf">first_name<tspan x="155.5" class="ty">VARCHAR</tspan></text><text x="13" y="161" class="tf">last_name<tspan x="155.5" class="ty">VARCHAR</tspan></text><text x="13" y="186" class="tf">sex<tspan x="155.5" class="ty">VARCHAR</tspan></text><text x="13" y="211" class="tf">hire_date<tspan x="155.5" class="ty">DATE</tspan></text></svg><svg width="128.7" height="100" x="814" y="274.34" id="h2472833127" class="t"><rect height="40" width="128.7" class="th"></rect><text x="13" y="25" class="tht">salaries</text><rect height="60" width="128.7" class="t-bg"></rect><text x="13" y="61" class="tf pk">emp_no<tspan x="115.69999999999999" class="ty">INT</tspan></text><path d="M7,14A2,2 0 0,1 5,12A2,2 0 0,1 7,10A2,2 0 0,1 9,12A2,2 0 0,1 7,14M12.65,10C11.83,7.67 9.61,6 7, 6A6, 6 0 0, 0 1, 12A6, 6 0 0, 0 7, 18C9.61, 18 11.83, 16.33 12.65, 14H17V18H21V14H23V10H12.65Z" class="i pk" transform="translate(76.36992187499999, 48) scale(0.65)"></path><text x="13" y="86" class="tf">salary<tspan x="115.69999999999999" class="ty">INT</tspan></text></svg><svg width="167.17" height="100" x="90.44" y="383" id="h475896179" class="t"><rect height="40" width="167.17" class="th"></rect><text x="13" y="25" class="tht">departments</text><rect height="60" width="167.17" class="t-bg"></rect><text x="13" y="61" class="tf pk">dept_no<tspan x="154.17" class="ty">VARCHAR</tspan></text><path d="M7,14A2,2 0 0,1 5,12A2,2 0 0,1 7,10A2,2 0 0,1 9,12A2,2 0 0,1 7,14M12.65,10C11.83,7.67 9.61,6 7, 6A6, 6 0 0, 0 1, 12A6, 6 0 0, 0 7, 18C9.61, 18 11.83, 16.33 12.65, 14H17V18H21V14H23V10H12.65Z" class="i pk" transform="translate(76.37898437499999, 48) scale(0.65)"></path><text x="13" y="86" class="tf">dept_name<tspan x="154.17" class="ty">VARCHAR</tspan></text></svg></g></g><text class="qdbd-link" x="10" y="20">www.quickdatabasediagrams.com</text></svg>